<svg xmlns="http://www.w3.org/2000/svg" viewBox="0 0 208 48"><defs><style>.cls-1{fill:#003469;}.cls-2{fill:#ec1c24;}</style></defs><title>logominhduc 2</title><g id="Layer_2" data-name="Layer 2"><path class="cls-1" d="M38.73,32.4V6.27a3,3,0,0,1,.89-2.16,3.27,3.27,0,0,1,2.16-1h5.85L53.4,25.44,59.17,3.13h8.91V32.4h-5.6V8.82L56.54,32.4H50.35l-6-23.58V32.4Z"/><path class="cls-1" d="M70,3.22h3.05a2.78,2.78,0,0,1,2,.85,2.78,2.78,0,0,1,.85,2V7.88H70Zm0,6.62h3.05A2.9,2.9,0,0,1,76,12.72V32.4H70Z"/><path class="cls-1" d="M95.9,32.4h-3A2.76,2.76,0,0,1,90,29.52V18a3.49,3.49,0,0,0-1.23-3,4.45,4.45,0,0,0-2.76-.93,4.27,4.27,0,0,0-2.71.93,3.54,3.54,0,0,0-1.19,3V32.4H76.22V19.17q0-5.77,3-7.72a13.16,13.16,0,0,1,6.66-2.12,12.76,12.76,0,0,1,6.87,2q3.14,2,3.14,7.89Z"/><path class="cls-1" d="M111,16.2a4,4,0,0,0-3.48-1.78,4.28,4.28,0,0,0-3.65,1.7,7.62,7.62,0,0,0-1.27,4.67V32.4H96.83V3.22h2.88a2.78,2.78,0,0,1,2,.85,2.78,2.78,0,0,1,.85,2v6.7a6.73,6.73,0,0,1,4.33-3.22,8.6,8.6,0,0,1,5.34.34,9.55,9.55,0,0,1,4,3.22,10.18,10.18,0,0,1,1.61,6.11V32.4h-5.68V20.69a11.9,11.9,0,0,0-.21-2.33A5.86,5.86,0,0,0,111,16.2Z"/><path class="cls-1" d="M128.64,19.59V16.88a2.25,2.25,0,0,1,2.54-2.54h10.43v5.26Zm3.14,12.81V6.27a3,3,0,0,1,3.05-3.05h8.4q6.7,0,10,3.56,3.31,3.73,3.31,11a19.76,19.76,0,0,1-1.19,7,11.82,11.82,0,0,1-3.56,4.92,11.59,11.59,0,0,1-4,2,23.84,23.84,0,0,1-6.19.59Zm5.85-5.26h4.83q4.16,0,6.11-2.21,1.87-2,1.87-7.13,0-4.92-1.78-7.21t-5.43-2.29h-5.6Z"/><path class="cls-1" d="M177.5,9.83V23.07q0,6-3.14,7.89a13.2,13.2,0,0,1-6.87,1.87,13.63,13.63,0,0,1-6.66-2q-3-1.87-3-7.72V9.83h5.94V24.26a3.54,3.54,0,0,0,1.19,3,4.27,4.27,0,0,0,2.71.93,4.44,4.44,0,0,0,2.76-.93,3.49,3.49,0,0,0,1.23-3V12.72a2.85,2.85,0,0,1,.81-2,2.74,2.74,0,0,1,2.08-.85Zm-3.82-7.38L168.51,7.8H165.8l2.38-4.33a1.68,1.68,0,0,1,.55-.64A1.88,1.88,0,0,1,170,2.45Zm4,3.22H180v3a3.64,3.64,0,0,1-1,2.54,5.2,5.2,0,0,1-2.88,1.19V11.7q0-.42.93-.93a1.5,1.5,0,0,0,.68-.42,1.94,1.94,0,0,0,.42-1.1q.17-.42-.59-.42h-1.36v-2Q176.23,5.68,177.67,5.68Z"/><path class="cls-1" d="M195.83,25.44h4.24a9.25,9.25,0,0,1-3.56,5.43,10.8,10.8,0,0,1-6.62,2,9.45,9.45,0,0,1-7.55-3.14q-2.71-3.05-2.71-8.74,0-5.43,2.63-8.48a9.45,9.45,0,0,1,7.55-3.14q5.09,0,7.89,3.05a11.63,11.63,0,0,1,2.21,4.33H194a4.94,4.94,0,0,0-.85-1.27A4.07,4.07,0,0,0,190,14.25a4.13,4.13,0,0,0-3.05,1.19q-1.53,1.7-1.53,5.6t1.53,5.51a4,4,0,0,0,3.31,1.36,4.8,4.8,0,0,0,2.46-.59,1.19,1.19,0,0,0,.47-.3l.47-.47a3.75,3.75,0,0,1,.68-.68A2.35,2.35,0,0,1,195.83,25.44Z"/><path class="cls-2" d="M88.43,38.9h1l1.33,4.15,1.49-4.15h1l1.49,4.15L96.1,38.9h1L95.3,44.39h-1l-1.56-4.25-1.57,4.25h-1Z"/><path class="cls-2" d="M97.43,38.9h1l1.33,4.15,1.49-4.15h1l1.49,4.15,1.33-4.15h1l-1.84,5.49h-1l-1.56-4.25-1.57,4.25h-1Z"/><path class="cls-2" d="M106.42,38.9h1l1.33,4.15,1.49-4.15h1l1.49,4.15,1.33-4.15h1l-1.84,5.49h-1l-1.56-4.25-1.57,4.25h-1Z"/><path class="cls-2" d="M115.54,43.09h1.3v1.3h-1.3Z"/><path class="cls-2" d="M126.13,41.29c0-1.05-.5-1.61-1.44-1.61a1.54,1.54,0,0,0-1.51,1.13v3.58h-1v-3.1c0-1.05-.5-1.61-1.44-1.61a1.52,1.52,0,0,0-1.51,1.13v3.58h-1V38.9h1v.83a2,2,0,0,1,1.79-1,1.89,1.89,0,0,1,1.9,1.12,2.23,2.23,0,0,1,2-1.12c1.41,0,2.15.91,2.15,2.41v3.2h-1Z"/><path class="cls-2" d="M132.8,43.61a2.3,2.3,0,0,1-1.87.9,2.87,2.87,0,0,1,0-5.73,2.3,2.3,0,0,1,1.87.9V36.61h1v7.78h-1Zm0-1V40.72a2,2,0,1,0,0,1.86Z"/><path class="cls-2" d="M134.69,38.9h1l1.33,4.15,1.49-4.15h1L141,43.05l1.33-4.15h1l-1.84,5.49h-1L139,40.14l-1.57,4.25h-1Z"/><path class="cls-2" d="M143.86,41.65a2.83,2.83,0,1,1,2.83,2.87A2.73,2.73,0,0,1,143.86,41.65Zm4.65,0a1.82,1.82,0,1,0-1.82,2A1.83,1.83,0,0,0,148.5,41.65Z"/><path class="cls-2" d="M150.68,38.9h1v.94a1.86,1.86,0,0,1,1.73-1.06h.12v1A1.81,1.81,0,0,0,151.67,41v3.42h-1Z"/><path class="cls-2" d="M154.44,36.61h1V41.5L158,38.9h1.16v0L157,41.18l2.5,3.18v0h-1.18l-2-2.55-.89.91v1.64h-1Z"/><path class="cls-2" d="M160.09,36.47h1.06v1.18h-1.06Zm0,2.43h1v5.49h-1Z"/><path class="cls-2" d="M162.63,38.9h1v.83a2,2,0,0,1,1.81-1c1.44,0,2.18.91,2.18,2.41v3.2h-1v-3.1c0-1.05-.53-1.61-1.46-1.61a1.56,1.56,0,0,0-1.54,1.13v3.58h-1Z"/><path class="cls-2" d="M168.73,41.45a2.49,2.49,0,0,1,2.56-2.67,2.22,2.22,0,0,1,1.8.87V38.9h1v4.77a2.65,2.65,0,0,1-2.73,2.86,2.76,2.76,0,0,1-2.5-1.23l.65-.6a2,2,0,0,0,1.82.93,1.72,1.72,0,0,0,1.78-1.9v-.45a2.23,2.23,0,0,1-1.8.85A2.48,2.48,0,0,1,168.73,41.45Zm4.36.81V40.65a1.71,1.71,0,0,0-1.6-1,1.78,1.78,0,0,0,0,3.56A1.71,1.71,0,0,0,173.09,42.26Z"/><path class="cls-2" d="M175.51,43.09h1.3v1.3h-1.3Z"/><path class="cls-2" d="M177.79,41.64a2.74,2.74,0,0,1,2.8-2.86A2.65,2.65,0,0,1,183,40.17l-.73.51a1.84,1.84,0,0,0-1.65-1,2,2,0,0,0,0,3.93,1.84,1.84,0,0,0,1.65-1l.73.52a2.65,2.65,0,0,1-2.42,1.39A2.74,2.74,0,0,1,177.79,41.64Z"/><path class="cls-2" d="M183.7,41.65a2.83,2.83,0,1,1,2.83,2.87A2.73,2.73,0,0,1,183.7,41.65Zm4.65,0a1.82,1.82,0,1,0-1.82,2A1.83,1.83,0,0,0,188.35,41.65Z"/><path class="cls-2" d="M198.4,41.29c0-1.05-.5-1.61-1.44-1.61a1.54,1.54,0,0,0-1.51,1.13v3.58h-1v-3.1c0-1.05-.5-1.61-1.44-1.61a1.52,1.52,0,0,0-1.51,1.13v3.58h-1V38.9h1v.83a2,2,0,0,1,1.79-1,1.89,1.89,0,0,1,1.9,1.12,2.23,2.23,0,0,1,2-1.12c1.41,0,2.15.91,2.15,2.41v3.2h-1Z"/><path class="cls-2" d="M3.43,1.35,13,6.89l8.47,4.86,4,2.31a5.66,5.66,0,0,1,2.74,3.65,6.22,6.22,0,0,1-.3,3.54,7.64,7.64,0,0,1-.75,1.24,4.33,4.33,0,0,1-.81.82l.35-1a3.42,3.42,0,0,0,0-2.15,3.68,3.68,0,0,0-1.44-1.95l-3.2-1.85-7.75-4.49L8.18,8.36,5.54,6.92A4.42,4.42,0,0,1,3.62,4.8,4,4,0,0,1,3.4,3.69Z"/><path class="cls-2" d="M28.31,47.18l-9.56-5.53-8.49-4.88-4-2.31a5.63,5.63,0,0,1-2.74-3.64,6.26,6.26,0,0,1,.3-3.55A8.11,8.11,0,0,1,4.56,26a4.11,4.11,0,0,1,.82-.84l-.35,1a3.52,3.52,0,0,0,0,2.15A3.68,3.68,0,0,0,6.48,30.3L9.7,32.17l7.75,4.49,6.16,3.52,2.66,1.44a4.33,4.33,0,0,1,1.88,2,3.91,3.91,0,0,1,.23,1.14Z"/><path class="cls-2" d="M5.19,9.08,8.48,11l3.61,2.08,3.44,2,7.85,4.53,1.95,1.11a2.34,2.34,0,0,1,1.17,2.7,2.89,2.89,0,0,1-1.44,1.76L21.91,27a2.48,2.48,0,0,0,1-2.55c-.27-1.05-1.15-1.67-2.24-2.32l-4.11-2.37-4.5-2.6L7.85,14.74,6.56,14a3.36,3.36,0,0,1-1.34-2.42Z"/><path class="cls-2" d="M26.6,39.43l-3.33-1.92-3.61-2.06-3.44-2L8.37,28.89,6.42,27.78a2.35,2.35,0,0,1-1.17-2.71A2.89,2.89,0,0,1,6.7,23.3l3.2-1.78a2.44,2.44,0,0,0-1,2.54c.27,1.05,1.15,1.67,2.24,2.32l4.14,2.37,4.5,2.6L24,33.77l1.28.78A3.36,3.36,0,0,1,26.59,37Z"/><path class="cls-1" d="M14.7,19.56l.3.17,4.14,2.37c1.07.65,2,1.27,2.24,2.32a2.48,2.48,0,0,1-1,2.54L17,28.9l-.26-.14-4.17-2.37c-1.07-.65-1.95-1.27-2.22-2.32a2.48,2.48,0,0,1,1-2.55Z"/></g></svg>